# xmcd
# 
# Track frame offsets:
#     183
#     23570
#     67835
#     98958
#     123878
# 
# Disc length: 2022
# 
# Revision: 9
# Processed by: cddbd v1.5.2PL0 Copyright (c) Steve Scherf et al.
# Submitted via: fre:ac v1.0.17
# 
DISCID=3107e405,3207e405
DTITLE=Speedy J. - Pullover-Remix [MCD]
DYEAR=0
DGENRE=Techno
TTITLE0=Pullover - Remix
TTITLE1=Rise
TTITLE2=Tresor
TTITLE3=Something For Your Mind [Live]
TTITLE4=De-Orbit
EXTD=
EXTT0=
EXTT1=
EXTT2=
EXTT3=
EXTT4=
PLAYORDER=
